<svg width="1440" height="1024" viewBox="0 0 1440 1024" fill="none" xmlns="http://www.w3.org/2000/svg">
<g clip-path="url(#clip0_1_2)">
<rect width="1440" height="1024" fill="white"/>
<path d="M1204.86 512.833C1189.14 498.558 1167.32 485.95 1139.86 475.916C1079.34 453.77 1004.89 443.984 944.446 421.74C891.06 402.094 848.277 375.173 807.364 349.31C758.184 318.212 688.044 294.637 606.858 305.044C528.254 315.116 482.298 349.745 469.111 388.403C457.007 423.878 473.614 457.712 513.789 487.256C554.529 517.21 611.311 540.947 658.448 568.153C705.684 595.409 748.885 624.815 778.063 658.102C815.802 701.174 851.598 753.92 946.389 772.435C993.601 781.648 1046.96 778.03 1086.45 761.878C1141.04 739.558 1163.4 705.849 1186.68 673.67C1223.21 623.187 1260.31 563.179 1204.86 512.833Z" stroke="#FAEFE6" stroke-miterlimit="10"/>
<path d="M650.751 342.448C580.61 350.766 538.443 380.782 527.052 415.113C524.272 423.457 523.386 431.75 524.272 439.919C526.609 461.953 541.616 483.29 567.744 502.75C602.58 528.526 650.947 549.154 691.393 572.618C721.186 589.914 749.232 608.155 772.186 627.9C780.427 635 788.03 642.286 794.795 649.797C828.205 686.677 860.187 731.452 941.374 747.318C983.295 755.537 1030.46 752.553 1065.96 738.353C1114.08 719.006 1134.01 689.86 1153.76 661.846C1158.09 655.703 1162.37 649.386 1166.41 642.958C1191.3 603.579 1207.17 559.785 1165.25 522.048C1151.74 509.837 1133.12 499.032 1109.8 490.365C1058.36 471.241 995.203 462.438 943.662 443.302C898.099 426.379 861.466 403.375 826.113 381.429C782.346 354.297 720.866 334.129 650.751 342.448Z" stroke="#FAEFE6" stroke-miterlimit="10"/>
<path d="M694.589 379.862C632.862 386.415 594.532 411.831 584.938 441.834C582.6 449.071 582.035 456.308 583.019 463.482C585.577 482.32 598.715 501.046 621.619 518.268C650.403 539.928 690.529 557.373 724.283 577.106C749.131 591.63 772.626 606.899 792.111 623.324C799.122 629.231 805.617 635.286 811.472 641.503C840.577 672.203 868.697 708.984 936.278 722.226C972.935 729.438 1013.95 727.138 1045.39 714.853C1087.11 698.539 1104.56 673.907 1120.74 650.046C1124.29 644.798 1127.73 639.402 1130.95 633.918C1150.59 600.532 1161.68 563.441 1125.54 531.286C1114.25 521.152 1098.82 512.138 1079.63 504.839C1037.27 488.736 985.384 480.915 942.749 464.9C905.009 450.7 874.478 431.626 844.71 413.584C806.454 390.382 753.609 373.608 694.589 379.862Z" stroke="#FAEFE6" stroke-miterlimit="10"/>
<path d="M738.453 417.276C685.116 422.026 650.649 442.891 642.85 468.555C640.98 474.685 640.685 480.865 641.792 487.045C644.572 502.687 655.914 518.789 675.497 533.773C698.352 551.268 730.113 565.579 757.175 581.595C777.078 593.358 796.047 605.643 812.062 618.748C817.844 623.461 823.207 628.285 828.152 633.222C852.803 657.767 877.233 686.527 931.21 697.134C962.602 703.338 997.414 701.697 1024.84 691.339C1060.15 678.022 1075.11 657.941 1087.78 638.245C1090.56 633.893 1093.16 629.417 1095.55 624.866C1110.02 597.486 1116.09 567.121 1085.91 540.5C1076.78 532.442 1064.6 525.218 1049.52 519.287C1016.23 506.206 975.641 499.367 941.912 486.46C911.996 474.996 887.566 459.864 863.382 445.714C830.514 426.478 786.329 413.024 738.453 417.276Z" stroke="#FAEFE6" stroke-miterlimit="10"/>
<path d="M782.297 454.703C737.276 457.588 706.745 473.951 700.766 495.288C699.339 500.312 699.339 505.434 700.57 510.62C703.522 523.066 713.141 536.533 729.403 549.302C746.354 562.632 769.726 573.823 790.071 586.095C805.005 595.098 819.446 604.411 832.018 614.184C836.545 617.716 840.825 621.297 844.835 624.94C865.132 643.305 885.748 664.07 926.145 672.041C952.248 677.238 980.86 676.243 1004.31 667.838C1033.14 657.493 1045.69 641.975 1054.79 626.444C1056.81 622.988 1058.58 619.444 1060.15 615.826C1069.48 594.451 1070.61 570.776 1046.25 549.738C1039.31 543.757 1030.36 538.311 1019.41 533.76C995.178 523.688 965.902 517.856 941.078 508.046C918.986 499.304 900.583 488.126 882.083 477.855C854.553 462.586 818.979 452.353 782.297 454.703Z" stroke="#FAEFE6" stroke-miterlimit="10"/>
<path d="M826.164 492.117C789.384 492.975 762.864 504.999 758.681 522.009C757.697 525.925 757.968 529.991 759.345 534.182C762.396 543.433 770.416 554.238 783.308 564.807C794.428 573.946 809.312 582.029 822.991 590.571C832.979 596.8 842.869 603.142 851.972 609.595C855.268 611.933 858.442 614.295 861.542 616.646C877.533 628.831 894.312 641.613 921.103 646.948C941.941 651.138 964.329 650.777 983.789 644.337C1006.1 636.951 1016.29 626.021 1021.85 614.644C1023.08 612.082 1024.04 609.459 1024.78 606.785C1029.01 591.441 1025.22 574.431 1006.62 558.976C1001.92 555.059 996.139 551.416 989.3 548.245C974.145 541.195 956.161 536.345 940.219 529.656C925.95 523.637 913.477 516.463 900.733 510.022C878.468 498.744 851.554 491.52 826.164 492.117Z" stroke="#FAEFE6" stroke-miterlimit="10"/>
<path d="M870.03 529.533C835.268 527.419 809.288 540.189 818.12 557.746C821.171 563.814 827.887 571.896 837.211 580.327C846.535 588.757 858.467 597.548 871.949 605.021C885.431 612.494 900.487 618.662 916.061 621.845C931.634 625.028 947.723 625.239 963.272 620.813C982.658 615.292 990.063 607.048 989.374 597.722C988.686 588.397 979.927 578.002 966.962 568.191C953.997 558.38 936.849 549.142 919.406 542.141C901.939 535.153 884.176 530.391 870.03 529.533Z" stroke="#FAEFE6" stroke-miterlimit="10"/>
<path d="M370.703 494.095C414.912 512.983 460.844 530.826 508.326 547.55C555.808 564.274 604.815 578.337 645.359 599.538C769.107 664.221 836.59 800.027 655.79 858.393C542.08 895.099 402.858 863.28 283.12 887.825C231.554 898.394 176.569 918.302 120.722 900.471C99.2693 893.62 85.8613 881.869 76.3157 869.982C31.5647 814.302 48.3679 747.294 43.2261 688.318C37.8875 627.154 32.5242 563.59 67.5574 504.229C80.1782 482.83 104.042 462.351 141.043 450.153C228.725 421.231 297.512 462.376 359.484 489.259C363.199 490.875 366.939 492.491 370.703 494.095Z" stroke="#FAEFE6" stroke-miterlimit="10"/>
<path d="M176.493 486.97C250.176 463.469 308.605 497.129 360.614 519.946C363.738 521.313 366.863 522.681 370.012 524.037C407.825 540.549 446.106 556.577 486.404 571.436C526.702 586.307 568.919 598.729 604.468 616.759C615.81 622.503 626.684 628.857 636.869 635.683C723.763 694.211 765.045 791.497 629.193 839.182C531.499 873.476 404.381 843.895 304.718 860.283C262.108 867.283 217.676 882.503 172.212 867.134C154.695 861.166 143.625 851.281 135.555 841.296C122.393 824.995 115.086 807.636 110.584 789.943C102.195 756.818 104.507 722.599 98.7751 690.842C90.3367 643.952 83.0299 593.992 105.098 546.754C107.214 542.203 109.625 537.677 112.306 533.176C123.402 514.723 144.363 497.216 176.493 486.97Z" stroke="#FAEFE6" stroke-miterlimit="10"/>
<path d="M211.951 523.788C271.586 505.671 319.707 531.895 361.777 550.621C364.286 551.74 366.82 552.859 369.33 553.978C400.845 568.066 431.4 582.341 464.465 595.322C497.58 608.353 533.006 619.109 563.562 633.993C573.378 638.755 582.875 643.94 591.78 649.511C667.284 696.698 712.379 777.024 602.581 819.971C520.927 851.915 406.429 824.473 326.301 832.729C292.817 836.173 258.645 846.78 223.661 833.773C210.032 828.713 201.323 820.655 194.779 812.585C184.052 799.38 177.533 785.442 172.735 771.354C163.756 744.993 162.329 718.384 154.358 693.329C142.254 655.292 132.61 613.19 150.987 573.5C152.759 569.683 154.776 565.878 157.088 562.11C166.634 546.63 184.667 532.082 211.951 523.788Z" stroke="#FAEFE6" stroke-miterlimit="10"/>
<path d="M247.398 560.618C292.911 547.836 330.823 566.674 362.929 581.309C364.847 582.179 366.766 583.05 368.661 583.933C393.829 595.633 416.684 608.105 442.54 619.221C468.496 630.399 497.108 639.513 522.669 651.239C530.935 655.007 539.054 659.048 546.705 663.362C610.621 699.272 659.874 762.762 575.982 800.798C510.466 830.503 409.549 805.212 347.897 805.212C323.91 805.212 299.677 811.019 275.149 800.462C265.456 796.284 259.084 790.08 254.016 783.912C245.725 773.803 239.993 763.271 234.9 752.802C225.354 733.218 219.942 714.169 209.929 695.865C193.913 666.608 182.202 632.438 196.89 600.283C198.292 597.2 199.965 594.116 201.884 591.07C209.855 578.524 224.936 566.922 247.398 560.618Z" stroke="#FAEFE6" stroke-miterlimit="10"/>
<path d="M282.851 597.436C314.096 589.864 341.921 601.44 364.087 611.984C365.391 612.606 366.719 613.228 367.999 613.862C386.77 623.2 401.974 633.856 420.622 643.095C439.394 652.42 461.216 659.893 481.783 668.448C488.524 671.233 495.215 674.131 501.661 677.165C553.891 701.846 607.769 748.686 549.414 781.562C500.308 809.216 414.127 786.934 369.524 777.646C355.476 774.723 340.764 775.184 326.643 767.089C320.886 763.781 316.827 759.454 313.259 755.189C307.404 748.164 302.459 741.052 297.071 734.213C286.935 721.393 277.119 709.916 265.507 698.352C244.915 677.848 231.778 651.649 242.775 627.03C243.833 624.68 245.112 622.317 246.662 620.004C253.083 610.418 265.138 601.726 282.851 597.436Z" stroke="#FAEFE6" stroke-miterlimit="10"/>
<path d="M456.586 691.016C435.699 683.991 414.172 676.978 398.698 666.993C387.258 659.62 379.533 650.866 367.305 643.816C355.103 636.765 335.987 631.456 318.298 634.266C302.061 636.84 292.319 645.407 288.702 653.825C281.371 670.91 294.385 689.798 321.103 700.901C333.502 706.049 348.534 709.63 359.261 715.673C376.088 725.173 379.237 738.9 391.145 750.141C413.606 771.354 490.98 788.277 522.839 762.401C556.544 734.959 496.909 704.594 456.586 691.016Z" stroke="#FAEFE6" stroke-miterlimit="10"/>
<path d="M856.124 149.206C829.603 200.211 751.541 244.216 652.395 260.666C621.322 265.827 588.602 268.388 558.341 274.618C508.375 284.913 467.462 305.579 445.788 330.484C426.131 353.04 433.044 379.077 412.698 401.496C393.754 422.386 353.653 434.522 308.066 432.47C262.921 430.431 223.017 417.499 183.162 407.689C145.914 398.525 106.748 389.373 80.5222 372.487C39.9536 346.351 33.3357 311.684 23.7901 279.952C8.51228 229.208 0 177.742 0 126.389C0 99.1332 4.08393 70.9822 28.6859 46.723C63.9897 11.9071 136.049 -9.46729 208.674 -23.0206C344.157 -48.3118 500.945 -52.7633 641.57 -35.803C718.746 -26.5022 803.918 -5.62511 837.697 32.9707C869.876 69.7139 876.396 110.212 856.124 149.206Z" stroke="#FAEFE6" stroke-miterlimit="10"/>
<path d="M781.283 45.0579C793.018 57.8278 801.284 71.2195 805.737 84.8971C812.552 105.762 810.731 127.186 800.226 148.125C777.445 193.535 708.953 232.964 622.354 248.619C595.194 253.555 566.631 256.278 540.159 262.06C496.81 271.51 460.596 290.012 440.693 312.195C422.832 332.164 427.58 355.105 408.957 374.776C391.76 393.042 356.432 403.723 316.404 402.044C276.623 400.403 241.417 389.138 206.335 380.272C173.836 372.078 139.737 363.822 116.858 348.727C81.4062 325.363 76.0184 294.824 68.5394 266.897C56.5829 222.221 51.8839 177.172 53.4092 132.197C54.2211 108.485 58.1574 83.9646 79.7333 62.7766C110.707 32.3501 173.049 13.4003 235.71 1.12773C282.945 -8.12333 333.134 -14.4648 384.109 -17.8842C459.292 -22.8206 536.567 -21.5647 609.315 -13.4949C648.014 -9.25485 689.099 -1.6078 722.902 10.5653C747.627 19.518 768.244 30.9077 781.283 45.0579Z" stroke="#FAEFE6" stroke-miterlimit="10"/>
<path d="M724.852 57.168C735.578 68.1225 743.377 79.7485 747.658 91.6978C754.251 109.964 753.095 128.714 744.312 147.08C725.27 186.894 666.324 221.76 592.272 236.594C568.998 241.306 544.618 244.204 521.935 249.513C485.204 258.118 453.689 274.456 435.557 293.903C419.492 311.286 422.001 331.106 405.174 348.067C389.65 363.697 359.143 372.923 324.725 371.63C290.307 370.374 259.801 360.787 229.466 352.866C201.814 345.642 172.759 338.269 153.2 324.976C122.891 304.385 118.684 277.987 113.296 253.84C104.661 215.257 103.75 176.599 106.85 138.015C108.449 117.835 112.263 96.9575 130.813 78.8408C157.481 52.8035 210.056 36.2909 262.802 25.2866C302.559 17.0054 344.653 11.0618 387.436 7.67973C450.392 2.6936 515.39 2.89255 577.117 8.83611C609.96 11.9944 645.092 17.9877 674.196 28.1589C695.428 35.5573 713.116 45.1814 724.852 57.168Z" stroke="#FAEFE6" stroke-miterlimit="10"/>
<path d="M668.439 69.2659C678.181 78.4175 685.512 88.2779 689.596 98.4739C695.968 114.141 695.476 130.219 688.44 145.998C673.138 180.204 623.688 210.419 562.232 224.545C542.846 228.996 522.647 232.092 503.778 236.954C473.665 244.7 446.75 258.863 430.488 275.612C416.121 290.396 416.539 307.133 401.458 321.357C387.656 334.364 361.947 342.098 333.089 341.215C304.034 340.32 278.227 332.449 252.665 325.448C229.81 319.194 205.823 312.703 189.561 301.214C164.394 283.396 161.368 261.126 158.071 240.784C152.781 208.281 155.635 176.051 160.285 143.834C162.671 127.197 166.362 109.963 181.886 94.9053C204.224 73.2573 247.056 59.1693 289.888 49.4582C322.166 42.1469 356.191 36.6385 390.756 33.244C441.51 28.2703 494.257 27.3004 544.888 31.155C571.925 33.2191 601.005 37.6084 625.459 45.7279C643.172 51.6218 658.007 59.4678 668.439 69.2659Z" stroke="#FAEFE6" stroke-miterlimit="10"/>
<path d="M611.998 81.3654C620.781 88.7141 627.596 96.7963 631.507 105.264C637.658 118.32 637.83 131.736 632.516 144.929C620.978 173.54 581.024 199.167 532.14 212.497C516.641 216.724 500.649 219.97 485.544 224.384C462.049 231.248 439.833 243.284 425.343 257.31C412.747 269.508 411.024 283.136 397.666 294.625C385.611 305.007 364.674 311.274 341.401 310.777C317.709 310.267 296.601 304.087 275.787 298.019C257.705 292.747 238.811 287.139 225.87 277.428C205.844 262.395 203.999 244.241 202.793 227.704C200.825 201.281 207.443 175.493 213.668 149.629C216.817 136.549 220.408 122.933 232.931 110.959C250.964 93.7002 284.054 82.0493 316.922 73.6065C341.696 67.265 367.651 62.1919 394.024 58.7973C432.551 53.8236 473.071 51.6849 512.631 53.4755C533.862 54.4329 556.914 57.2182 576.694 63.2985C590.939 67.6754 602.92 73.7557 611.998 81.3654Z" stroke="#FAEFE6" stroke-miterlimit="10"/>
<path d="M555.558 93.4634C563.406 99.009 569.655 105.326 573.419 112.04C579.324 122.497 580.209 133.24 576.593 143.859C568.794 166.875 538.386 187.926 502.073 200.46C490.461 204.464 478.652 207.846 467.336 211.825C450.434 217.781 432.917 227.716 420.198 239.018C409.398 248.618 405.511 259.149 393.874 267.916C383.566 275.675 367.378 280.474 349.689 280.362C331.36 280.25 314.951 275.762 298.91 270.601C285.625 266.324 271.774 261.574 262.155 253.666C247.246 241.406 246.607 227.392 247.492 214.647C248.845 194.317 259.129 174.97 267.026 155.448C270.889 145.923 274.432 135.939 283.928 127.023C297.631 114.154 320.978 104.928 343.932 97.778C361.227 92.4064 379.088 87.7809 397.269 84.3615C423.569 79.4127 451.91 76.0803 480.35 75.7943C495.8 75.6451 512.751 76.8264 527.93 80.8799C538.681 83.7398 547.882 88.0296 555.558 93.4634Z" stroke="#FAEFE6" stroke-miterlimit="10"/>
<path d="M499.152 105.562C506.163 109.28 511.772 113.856 515.364 118.83C521.047 126.688 522.597 134.758 520.728 142.79C516.668 160.211 495.83 176.723 472.04 188.424C464.315 192.216 456.639 195.686 449.16 199.279C438.803 204.253 426.108 212.161 415.111 220.741C406.132 227.766 400.104 235.189 390.14 241.207C381.628 246.355 370.164 249.675 358.035 249.936C345.045 250.21 333.31 247.462 322.091 243.184C313.554 239.927 304.821 236.01 298.523 229.905C288.756 220.417 289.297 210.532 292.274 201.592C296.973 187.342 310.651 174.46 320.492 161.28C324.945 155.324 328.562 148.945 335.032 143.101C344.43 134.621 358.035 127.82 371.049 121.951C380.841 117.549 390.608 113.408 400.621 109.939C414.644 105.077 430.881 100.427 448.176 98.1267C457.845 96.8459 468.694 96.4729 479.249 98.4624C486.408 99.8053 492.952 102.28 499.152 105.562Z" stroke="#FAEFE6" stroke-miterlimit="10"/>
<path d="M430.509 116.031C414.616 116.441 407.26 128.054 403.914 135.49C398.625 147.34 390.678 158.195 373.9 167.085C353.529 177.891 322.875 188.758 334.856 206.141C346.715 223.325 367.134 221.92 386.373 214.497C405.636 207.062 423.743 193.62 430.952 186.719C449.502 168.988 478.704 146.009 457.276 125.63C453.881 122.397 449.083 119.425 442.687 117.672C438.16 116.416 434.101 115.931 430.509 116.031Z" stroke="#FAEFE6" stroke-miterlimit="10"/>
<path d="M1019.71 154.815C935.149 158.583 861.147 191.844 833.051 231.522C798.608 280.189 860.409 329.392 928.458 362.305C970.748 382.772 1023.42 398.974 1078.19 409.443C1134.47 420.199 1243.22 447.728 1297.19 422.076C1349.2 397.345 1313.33 342.858 1298.96 313.389C1266.64 247.189 1186.8 148.598 1022.36 154.716C1021.48 154.741 1020.59 154.778 1019.71 154.815Z" stroke="#FAEFE6" stroke-miterlimit="10"/>
<path d="M880.042 239.517C870.029 252.225 868.504 265.567 873.129 278.374C883.142 306.215 919.824 332.177 959.236 351.786C993.95 369.057 1037.91 382.996 1083.5 392.172C1131.13 401.772 1220.63 424.041 1265.9 401.523C1308.09 380.534 1279.73 336.007 1267.72 311.387C1240.83 256.328 1173.72 175.73 1038.97 179.199C1038.23 179.224 1037.52 179.236 1036.78 179.261C987.282 180.828 941.818 194.344 910.549 213.48C897.731 221.326 887.448 230.142 880.042 239.517Z" stroke="#FAEFE6" stroke-miterlimit="10"/>
<path d="M927.029 247.5C917.804 257.584 916.131 268.887 919.895 279.58C928.087 302.845 957.757 324.567 989.986 341.241C1017.15 355.305 1052.38 367.005 1088.79 374.888C1127.76 383.331 1198.02 400.354 1234.58 380.969C1267 363.76 1246.12 329.155 1236.45 309.385C1215 265.48 1160.58 202.836 1055.55 203.694C1054.98 203.694 1054.39 203.706 1053.83 203.706C1014.78 204.154 978.57 213.691 952.763 227.841C942.184 233.648 933.623 240.3 927.029 247.5Z" stroke="#FAEFE6" stroke-miterlimit="10"/>
<path d="M974.017 255.483C965.504 262.969 963.733 272.195 966.661 280.787C973.057 299.475 995.74 316.933 1020.74 330.71C1040.37 341.528 1066.84 351.053 1094.05 357.618C1124.36 364.929 1175.46 376.742 1203.23 360.416C1225.99 347.049 1212.46 322.305 1205.15 307.384C1189.14 274.619 1147.36 229.906 1072.08 228.19C1071.66 228.178 1071.24 228.165 1070.83 228.153C1042.26 227.494 1015.27 233.027 994.953 242.203C986.662 245.971 979.749 250.447 974.017 255.483Z" stroke="#FAEFE6" stroke-miterlimit="10"/>
<path d="M1021.01 263.464C1013.07 268.326 1011.34 275.513 1013.43 281.991C1018.01 296.092 1033.83 309.247 1051.49 320.164C1063.7 327.699 1081.26 335.135 1099.34 340.333C1120.97 346.55 1153.08 353.227 1171.92 339.86C1185.21 330.447 1178.83 315.452 1173.89 305.38C1163.29 283.757 1134.11 256.849 1088.67 252.671C1088.4 252.646 1088.13 252.622 1087.88 252.584C1069.8 250.806 1052.01 252.361 1037.18 256.551C1031.12 258.279 1025.74 260.58 1021.01 263.464Z" stroke="#FAEFE6" stroke-miterlimit="10"/>
<path d="M1105.3 277.167C1097.6 274.221 1088.94 271.721 1079.42 270.926C1075.58 270.602 1071.5 270.577 1068 271.46C1060.15 273.437 1058.95 278.834 1060.23 283.223C1062.98 292.748 1072.36 301.439 1082.3 309.658C1094.4 319.668 1125.4 337.648 1140.65 319.332C1153.86 303.404 1129.11 286.269 1105.3 277.167Z" stroke="#FAEFE6" stroke-miterlimit="10"/>
<path d="M1416.33 692.42C1391.26 683.504 1361.91 679.302 1328.62 683.878C1276.22 691.077 1240.25 714.341 1214.27 737.034C1174.1 772.136 1156.95 815.917 1060.34 817.831C1011.63 818.801 967.885 805.484 920.797 801.667C875.136 797.962 832.968 807.237 803.717 825.304C727.918 872.119 704.398 949.149 816.829 986.29C879.146 1006.88 954.625 1011.89 1025.26 1021.14C1103.49 1031.39 1183.69 1039.14 1264.81 1039.6C1348.99 1040.07 1433.26 1028.17 1485.14 992.483C1530.34 961.397 1538.92 919.979 1540.74 882.614C1542.71 841.618 1533.41 799.615 1506.52 760.709C1490.78 737.929 1460.07 707.975 1416.33 692.42Z" stroke="#FAEFE6" stroke-miterlimit="10"/>
<path d="M1392.12 722.274C1369.73 714.527 1343.75 710.946 1314.5 714.95C1268.2 721.292 1236.24 741.659 1212.85 761.579C1182.19 787.74 1165.86 819.348 1109.32 829.308C1099.38 831.061 1088.24 832.143 1075.57 832.404C1040.07 833.175 1007.42 825.491 973.69 820.977C966.58 820.019 959.396 819.211 952.139 818.652C911.816 815.531 874.471 823.613 848.491 839.479C782.459 880.064 761.966 946.861 859.119 979.352C875.725 984.91 893.488 989.175 911.89 992.656C954.009 1000.63 999.522 1004.56 1043.12 1010.18C1112.17 1019.1 1183.08 1025.77 1254.74 1026.03C1329.09 1026.3 1403.49 1015.81 1449.81 984.748C1490.38 957.629 1499.26 921.47 1501.77 888.582C1504.4 852.597 1496.26 815.705 1472.25 781.697C1458.1 761.753 1430.82 735.753 1392.12 722.274Z" stroke="#FAEFE6" stroke-miterlimit="10"/>
<path d="M1367.91 752.141C1348.23 745.538 1325.6 742.591 1300.35 746.035C1260.15 751.506 1232.18 768.989 1211.39 786.136C1184.28 808.592 1169.13 835.661 1120.05 844.291C1111.39 845.808 1101.69 846.753 1090.75 847.014C1059.94 847.76 1031.5 841.331 1002.15 837.601C995.954 836.805 989.73 836.146 983.407 835.686C948.399 833.137 915.826 840.001 893.192 853.703C836.681 887.947 819.484 944.647 901.36 972.45C915.678 977.312 931.104 981.042 947.046 984.064C983.457 990.965 1022.92 994.434 1060.9 999.246C1120.76 1006.86 1182.39 1012.44 1244.63 1012.51C1309.16 1012.59 1373.67 1003.5 1414.43 977.051C1450.35 953.898 1459.55 922.999 1462.78 894.575C1466.07 863.613 1459.06 831.807 1437.95 802.698C1425.43 785.576 1401.64 763.468 1367.91 752.141Z" stroke="#FAEFE6" stroke-miterlimit="10"/>
<path d="M1343.68 782.009C1326.68 776.563 1307.44 774.25 1286.19 777.122C1252.09 781.735 1228.12 796.321 1209.89 810.695C1186.33 829.446 1172.33 851.964 1130.73 859.263C1123.34 860.556 1115.1 861.364 1105.88 861.613C1079.8 862.322 1055.52 857.161 1030.57 854.202C1025.31 853.58 1019.99 853.046 1014.63 852.697C984.959 850.733 957.159 856.391 937.871 867.917C891.004 895.894 876.956 942.423 943.554 965.551C955.584 969.728 968.648 972.912 982.179 975.473C1012.88 981.305 1046.32 984.326 1078.69 988.318C1129.35 994.622 1181.73 999.111 1234.5 998.986C1289.21 998.862 1343.7 991.128 1379.03 969.355C1410.23 950.12 1419.95 924.542 1423.73 900.582C1427.84 874.644 1421.84 847.935 1403.61 823.713C1392.76 809.401 1372.42 791.223 1343.68 782.009Z" stroke="#FAEFE6" stroke-miterlimit="10"/>
<path d="M1319.47 811.875C1305.16 807.585 1289.29 805.894 1272.07 808.207C1244.09 811.949 1224.04 823.625 1208.47 835.251C1188.35 850.272 1175.63 868.276 1141.5 874.232C1135.38 875.302 1128.64 875.973 1121.11 876.209C1099.73 876.893 1079.65 872.989 1059.11 870.8C1054.78 870.34 1050.4 869.955 1045.97 869.706C1021.64 868.314 998.64 872.765 982.649 882.116C945.476 903.826 934.503 940.208 985.872 958.623C995.614 962.117 1006.32 964.753 1017.41 966.867C1042.43 971.63 1069.79 974.191 1096.56 977.374C1138.04 982.36 1181.11 985.767 1224.44 985.444C1269.34 985.121 1313.91 978.779 1343.71 961.632C1370.23 946.351 1380.32 926.058 1384.77 906.561C1389.57 885.647 1384.77 863.999 1369.34 844.713C1360.14 833.224 1343.19 818.975 1319.47 811.875Z" stroke="#FAEFE6" stroke-miterlimit="10"/>
<path d="M1295.26 841.743C1283.63 838.622 1271.13 837.553 1257.92 839.293C1236.05 842.178 1220.01 850.957 1207.02 859.81C1190.44 871.125 1178.9 884.579 1152.23 889.204C1147.38 890.05 1142.09 890.585 1136.29 890.808C1119.63 891.467 1103.74 888.819 1087.57 887.414C1084.15 887.115 1080.74 886.879 1077.27 886.73C1058.27 885.922 1040.09 889.167 1027.37 896.329C999.918 911.785 991.922 938.058 1028.11 951.724C1035.54 954.534 1043.93 956.623 1052.59 958.277C1071.9 961.982 1093.21 964.083 1114.37 966.446C1146.64 970.114 1180.47 972.439 1214.35 971.929C1249.41 971.407 1284.12 966.471 1308.33 953.949C1330.22 942.634 1340.61 927.601 1345.77 912.581C1351.23 896.69 1347.59 880.14 1335.05 865.741C1327.47 857.05 1313.91 846.754 1295.26 841.743Z" stroke="#FAEFE6" stroke-miterlimit="10"/>
<path d="M1271.06 871.61C1262.08 869.671 1252.98 869.198 1243.8 870.392C1228.03 872.406 1216 878.3 1205.59 884.38C1192.55 892.002 1182.17 900.893 1162.98 904.2C1159.41 904.81 1155.6 905.22 1151.49 905.431C1139.54 906.053 1127.85 904.685 1116.09 904.039C1113.61 903.902 1111.1 903.802 1108.59 903.765C1094.93 903.529 1081.6 905.593 1072.15 910.554C1054.54 919.793 1049.32 936.02 1070.43 944.823C1075.57 946.962 1081.6 948.479 1087.82 949.685C1101.43 952.321 1116.71 953.962 1132.23 955.516C1155.31 957.866 1179.86 959.11 1204.29 958.401C1229.53 957.68 1254.4 954.161 1273 946.241C1290.27 938.892 1300.9 929.131 1306.8 918.574C1312.88 907.707 1310.42 896.242 1300.78 886.755C1294.77 880.874 1284.61 874.545 1271.06 871.61Z" stroke="#FAEFE6" stroke-miterlimit="10"/>
<path d="M1173.68 919.17C1164.38 920.724 1154.32 920.463 1144.53 920.637C1134.74 920.811 1124.38 921.582 1116.83 924.753C1109.3 927.924 1106.15 934.19 1112.62 937.908C1115.3 939.45 1119.17 940.333 1122.93 941.091C1164.48 949.335 1242.64 947.035 1267.76 924.579C1278.66 914.83 1268.06 903.838 1246.8 901.488C1214.37 897.895 1200.45 914.681 1173.68 919.17Z" stroke="#FAEFE6" stroke-miterlimit="10"/>
<path d="M801.284 284.391C798.651 278.808 794.469 273.375 789.696 268.451C784.579 263.179 776.657 258.292 765.783 256.253C743.469 252.075 719.974 261.152 703.491 267.692C700.145 269.01 696.799 270.415 694.634 272.256C688.041 277.839 698.251 283.198 706.492 286.418C725.116 293.692 745.216 299.71 763.741 307.022C803.719 322.826 808.394 299.536 801.284 284.391Z" stroke="#FAEFE6" stroke-miterlimit="10"/>
<path d="M757.72 276.421C753.514 275.327 748.027 275.327 744.263 276.782C742.123 277.603 740.597 278.983 741.262 280.288C742.024 281.805 745.198 282.589 747.757 283.459C752.726 285.138 762.149 292.511 767.389 287.475C771.202 283.782 764.24 278.125 757.72 276.421Z" stroke="#FAEFE6" stroke-miterlimit="10"/>
<path d="M708.342 982.438C694.049 971.011 684.282 958.129 679.804 944.799C675.991 933.447 675.351 921.012 661.057 912.035C646.764 903.057 621.891 899.986 599.159 900.894C576.427 901.802 554.851 906.054 532.955 909.299C490.64 915.579 446.184 918.14 402.171 916.859C374.543 916.051 347.062 913.738 319.385 913.9C267.893 914.186 216.746 923.3 176.276 939.403C163.335 944.551 150.936 950.842 146.901 958.912C142.866 966.982 150.444 977.004 166.336 979.192" stroke="#FAEFE6" stroke-miterlimit="10"/>
<path d="M621.37 967.628C625.109 957.644 628.012 946.03 614.53 938.495C597.973 929.244 568.599 932.141 544.612 935.051C496.81 940.845 447.582 943.668 398.427 943.431C347.501 943.183 290.523 940.621 251.922 957.395C233.077 965.577 222.055 980.983 238.071 990.57" stroke="#FAEFE6" stroke-miterlimit="10"/>
<path d="M912.436 105.575C910.836 105.239 909.262 105.152 907.761 105.413C906.728 105.6 906.014 106.048 905.375 106.495C898.585 111.407 899.15 118.059 897.182 123.729C895.116 129.635 893.492 135.591 891.77 141.522C890.761 145.054 886.382 152.042 893.271 154.69C896.764 156.033 901.66 155.61 905.941 155.113C921.76 153.273 941.417 150.376 945.328 141.187C948.551 133.627 939.719 126.378 933.692 119.775C929.14 114.776 923.187 107.875 912.436 105.575Z" stroke="#FAEFE6" stroke-miterlimit="10"/>
<path d="M1171.25 466.068C1156.91 467.1 1147.22 458.981 1137.67 454.964C1124.58 449.468 1109.62 445.166 1094.1 441.709C1075.97 437.681 1056.95 434.784 1037.91 432.073C1025.09 430.258 1006.86 426.652 1007.9 418.308C1008.54 413.198 1030.38 417.239 1036.75 418.544C1082.14 427.845 1125.62 439.596 1174.89 443.997C1198.17 446.074 1192.88 464.352 1171.52 466.056C1171.42 466.056 1171.33 466.068 1171.25 466.068Z" stroke="#FAEFE6" stroke-miterlimit="10"/>
<path d="M500.4 504.017C498.654 503.147 496.981 502.276 495.455 501.431C470.632 487.703 454.788 472.111 438.945 455.524C436.853 453.323 434.615 451.097 431.22 449.356C425.266 446.31 416.532 446.248 408.61 446.583C401.033 446.907 393.505 447.479 386.075 448.312C375.619 449.481 364.007 451.818 360.686 456.953C356.799 462.997 366.492 468.865 374.684 473.665C415.351 497.489 459.02 519.261 516.564 532.852C520.844 533.859 525.322 534.779 530.046 534.929C532.432 535.003 535.04 534.841 536.787 534.008C538.804 533.039 539.075 531.447 538.706 530.042C536.024 519.684 515.211 511.415 500.4 504.017Z" stroke="#FAEFE6" stroke-miterlimit="10"/>
<path d="M861.386 766.79C848.814 758.944 837.891 750.551 825.811 742.443C820.596 738.937 810.779 737.457 804.358 741.15C800.471 743.388 799.438 746.547 799.536 749.531C799.979 762.724 801.012 774.176 792.353 786.97C781.208 803.458 765.733 819.275 745.51 833.412C735.424 840.462 724.131 847.09 711.683 853.096C691.977 862.595 644.888 875.328 678.076 891.555C682.677 893.805 688.754 895.409 695.15 895.459C715.84 895.621 723.123 879.096 730.602 871.834C741.697 861.029 752.301 850.086 762.683 839.107C777.542 823.39 790.114 805.497 818.012 794.307C825.91 791.136 834.988 788.637 844.681 787.182C854.276 785.752 867.782 787.343 876.294 784.956C886.406 782.109 878.041 776.314 872.973 773.554C868.914 771.365 865.076 769.102 861.386 766.79Z" stroke="#FAEFE6" stroke-miterlimit="10"/>
<rect y="-48" width="1541" height="1089" fill="#F6F7F9"/>
<path d="M1204.87 513.483C1189.15 499.246 1167.32 486.671 1139.87 476.663C1079.35 454.575 1004.9 444.815 944.455 422.629C891.069 403.035 848.286 376.185 807.373 350.39C758.193 319.374 688.053 295.86 606.866 306.24C528.263 316.286 482.306 350.824 469.12 389.38C457.016 424.762 473.622 458.507 513.797 487.973C554.538 517.848 611.319 541.523 658.457 568.658C705.693 595.842 748.894 625.171 778.072 658.37C815.811 701.33 851.607 753.937 946.399 772.403C993.61 781.593 1046.97 777.984 1086.46 761.874C1141.05 739.613 1163.41 705.993 1186.69 673.897C1223.22 623.547 1260.32 563.697 1204.87 513.483Z" stroke="#FAEFE6" stroke-miterlimit="10"/>
<path d="M650.759 343.543C580.619 351.84 538.451 381.777 527.06 416.018C524.28 424.34 523.395 432.611 524.28 440.759C526.617 462.735 541.625 484.016 567.752 503.424C602.588 529.133 650.956 549.707 691.402 573.109C721.195 590.36 749.241 608.553 772.195 628.246C780.436 635.328 788.038 642.595 794.804 650.085C828.213 686.869 860.196 731.527 941.383 747.351C983.304 755.548 1030.47 752.572 1065.97 738.409C1114.09 719.113 1134.02 690.043 1153.77 662.103C1158.1 655.976 1162.38 649.676 1166.42 643.265C1191.31 603.989 1207.18 560.31 1165.26 522.672C1151.75 510.493 1133.13 499.716 1109.81 491.073C1058.37 471.999 995.212 463.219 943.671 444.133C898.108 427.254 861.475 404.311 826.122 382.422C782.355 355.362 720.875 335.247 650.759 343.543Z" stroke="#FAEFE6" stroke-miterlimit="10"/>
<path d="M694.597 380.86C632.871 387.396 594.541 412.745 584.946 442.67C582.609 449.887 582.043 457.105 583.027 464.261C585.586 483.049 598.723 501.726 621.627 518.902C650.412 540.506 690.538 557.905 724.292 577.586C749.14 592.071 772.635 607.301 792.119 623.683C799.131 629.574 805.626 635.613 811.481 641.814C840.585 672.434 868.705 709.117 936.287 722.325C972.944 729.518 1013.96 727.224 1045.4 714.971C1087.12 698.7 1104.56 674.133 1120.75 650.334C1124.3 645.1 1127.74 639.718 1130.96 634.249C1150.6 600.951 1161.69 563.957 1125.55 531.887C1114.26 521.779 1098.83 512.788 1079.64 505.508C1037.28 489.448 985.393 481.648 942.757 465.675C905.018 451.512 874.487 432.488 844.718 414.493C806.462 391.352 753.617 374.622 694.597 380.86Z" stroke="#FAEFE6" stroke-miterlimit="10"/>
<path d="M738.47 418.176C685.133 422.913 650.666 443.723 642.867 469.32C640.997 475.434 640.702 481.598 641.809 487.761C644.589 503.363 655.931 519.423 675.514 534.366C698.369 551.815 730.13 566.09 757.192 582.063C777.095 593.795 796.064 606.048 812.079 619.119C817.861 623.819 823.224 628.631 828.169 633.554C852.82 658.035 877.25 686.72 931.227 697.298C962.619 703.487 997.431 701.85 1024.86 691.519C1060.17 678.237 1075.12 658.209 1087.79 638.564C1090.57 634.224 1093.18 629.759 1095.57 625.22C1110.03 597.912 1116.11 567.627 1085.92 541.076C1076.8 533.039 1064.62 525.834 1049.54 519.919C1016.25 506.872 975.658 500.051 941.929 487.178C912.013 475.744 887.583 460.652 863.399 446.539C830.531 427.353 786.346 413.935 738.47 418.176Z" stroke="#FAEFE6" stroke-miterlimit="10"/>
<path d="M782.297 455.506C737.276 458.384 706.745 474.704 700.766 495.985C699.339 500.995 699.339 506.105 700.57 511.276C703.522 523.69 713.141 537.121 729.403 549.858C746.354 563.152 769.726 574.313 790.072 586.554C805.005 595.533 819.446 604.821 832.018 614.569C836.545 618.091 840.825 621.663 844.836 625.296C865.132 643.613 885.749 664.324 926.145 672.273C952.248 677.457 980.86 676.465 1004.31 668.082C1033.14 657.764 1045.69 642.286 1054.79 626.797C1056.81 623.349 1058.58 619.815 1060.15 616.206C1069.48 594.888 1070.61 571.275 1046.25 550.292C1039.31 544.326 1030.36 538.895 1019.41 534.356C995.178 524.31 965.902 518.494 941.079 508.709C918.986 499.991 900.584 488.842 882.083 478.598C854.553 463.369 818.979 453.162 782.297 455.506Z" stroke="#FAEFE6" stroke-miterlimit="10"/>
<path d="M826.164 492.821C789.384 493.677 762.864 505.669 758.681 522.635C757.697 526.541 757.968 530.597 759.345 534.776C762.396 544.003 770.416 554.78 783.308 565.321C794.428 574.436 809.312 582.497 822.991 591.017C832.979 597.23 842.869 603.555 851.972 609.992C855.269 612.323 858.442 614.679 861.542 617.023C877.533 629.177 894.312 641.926 921.104 647.246C941.941 651.425 964.329 651.065 983.789 644.641C1006.1 637.275 1016.29 626.374 1021.85 615.027C1023.08 612.472 1024.04 609.855 1024.78 607.189C1029.01 591.885 1025.22 574.92 1006.62 559.505C1001.92 555.598 996.14 551.965 989.3 548.802C974.145 541.77 956.161 536.934 940.219 530.262C925.95 524.259 913.477 517.104 900.733 510.68C878.468 499.432 851.554 492.226 826.164 492.821Z" stroke="#FAEFE6" stroke-miterlimit="10"/>
<path d="M870.039 530.14C835.276 528.031 809.296 540.768 818.128 558.279C821.179 564.331 827.895 572.392 837.22 580.8C846.544 589.208 858.476 597.976 871.958 605.43C885.44 612.883 900.496 619.034 916.069 622.209C931.642 625.384 947.732 625.595 963.28 621.18C982.667 615.673 990.072 607.451 989.383 598.15C988.694 588.849 979.936 578.481 966.971 568.696C954.005 558.911 936.858 549.697 919.415 542.715C901.947 535.745 884.185 530.995 870.039 530.14Z" stroke="#FAEFE6" stroke-miterlimit="10"/>
<path d="M370.703 494.794C414.913 513.632 460.845 531.428 508.327 548.108C555.809 564.788 604.816 578.814 645.36 599.959C769.108 664.472 836.591 799.922 655.791 858.135C542.081 894.744 402.858 863.009 283.12 887.489C231.554 898.031 176.569 917.886 120.722 900.102C99.2694 893.269 85.8613 881.549 76.3158 869.693C31.5647 814.159 48.3679 747.327 43.2261 688.506C37.8874 627.503 32.5242 564.106 67.5575 504.901C80.1783 483.558 104.042 463.132 141.044 450.967C228.725 422.12 297.512 463.157 359.485 489.969C363.2 491.582 366.939 493.194 370.703 494.794Z" stroke="#FAEFE6" stroke-miterlimit="10"/>
<path d="M176.501 487.687C250.184 464.248 308.614 497.819 360.623 520.576C363.747 521.94 366.872 523.305 370.021 524.656C407.834 541.126 446.115 557.111 486.413 571.931C526.711 586.763 568.928 599.153 604.478 617.135C615.819 622.864 626.693 629.202 636.879 636.01C723.773 694.384 765.055 791.414 629.203 838.974C531.508 873.178 404.39 843.674 304.727 860.02C262.116 867.002 217.685 882.181 172.22 866.853C154.704 860.9 143.633 851.041 135.564 841.082C122.401 824.824 115.095 807.511 110.592 789.864C102.203 756.826 104.516 722.697 98.7835 691.023C90.345 644.257 83.0382 594.428 105.106 547.314C107.222 542.775 109.633 538.261 112.315 533.771C123.41 515.368 144.371 497.906 176.501 487.687Z" stroke="#FAEFE6" stroke-miterlimit="10"/>
<path d="M211.943 524.408C271.578 506.339 319.699 532.494 361.769 551.171C364.278 552.287 366.812 553.403 369.322 554.519C400.837 568.57 431.392 582.807 464.458 595.755C497.572 608.751 532.999 619.479 563.554 634.323C573.371 639.073 582.867 644.245 591.773 649.801C667.276 696.865 712.372 776.979 602.573 819.814C520.919 851.673 406.421 824.303 326.293 832.538C292.809 835.973 258.637 846.552 223.653 833.579C210.024 828.532 201.315 820.496 194.77 812.447C184.044 799.277 177.524 785.375 172.727 771.324C163.747 745.032 162.32 718.493 154.349 693.504C142.245 655.567 132.601 613.576 150.979 573.99C152.75 570.182 154.768 566.388 157.08 562.63C166.626 547.19 184.659 532.68 211.943 524.408Z" stroke="#FAEFE6" stroke-miterlimit="10"/>
<path d="M247.398 561.142C292.911 548.393 330.823 567.182 362.929 581.778C364.848 582.646 366.767 583.514 368.661 584.395C393.829 596.065 416.684 608.504 442.541 619.591C468.496 630.74 497.108 639.83 522.67 651.525C530.936 655.282 539.055 659.313 546.706 663.616C610.622 699.432 659.875 762.754 575.982 800.691C510.467 830.318 409.55 805.093 347.897 805.093C323.91 805.093 299.677 810.885 275.149 800.356C265.456 796.189 259.084 790.001 254.016 783.849C245.725 773.767 239.993 763.263 234.9 752.821C225.354 733.288 219.942 714.289 209.929 696.034C193.913 666.853 182.202 632.773 196.89 600.703C198.292 597.627 199.965 594.552 201.884 591.513C209.855 579 224.936 567.43 247.398 561.142Z" stroke="#FAEFE6" stroke-miterlimit="10"/>
<path d="M282.843 597.863C314.088 590.31 341.912 601.856 364.079 612.373C365.383 612.993 366.711 613.613 367.991 614.246C386.762 623.559 401.966 634.187 420.614 643.402C439.386 652.703 461.207 660.156 481.775 668.688C488.516 671.466 495.207 674.356 501.653 677.382C553.883 701.999 607.762 748.716 549.406 781.506C500.3 809.087 414.119 786.863 369.516 777.599C355.468 774.685 340.756 775.144 326.635 767.07C320.878 763.771 316.818 759.456 313.251 755.202C307.396 748.195 302.451 741.101 297.063 734.28C286.927 721.494 277.111 710.048 265.499 698.514C244.907 678.064 231.769 651.934 242.766 627.379C243.824 625.035 245.104 622.679 246.653 620.372C253.075 610.81 265.13 602.142 282.843 597.863Z" stroke="#FAEFE6" stroke-miterlimit="10"/>
<path d="M456.586 691.197C435.699 684.19 414.172 677.195 398.698 667.237C387.258 659.883 379.533 651.152 367.306 644.12C355.103 637.089 335.987 631.793 318.298 634.596C302.061 637.163 292.319 645.708 288.702 654.104C281.371 671.143 294.385 689.981 321.103 701.056C333.502 706.19 348.534 709.762 359.261 715.789C376.088 725.264 379.238 738.955 391.145 750.166C413.607 771.323 490.98 788.202 522.839 762.394C556.544 735.024 496.909 704.739 456.586 691.197Z" stroke="#FAEFE6" stroke-miterlimit="10"/>
<path d="M856.125 150.812C829.604 201.683 751.542 245.573 652.396 261.98C621.323 267.126 588.603 269.681 558.342 275.894C508.376 286.163 467.463 306.774 445.788 331.615C426.131 354.111 433.044 380.08 412.699 402.44C393.755 423.275 353.654 435.379 308.066 433.332C262.922 431.298 223.017 418.401 183.162 408.616C145.914 399.476 106.748 390.348 80.5223 373.507C39.9536 347.439 33.3357 312.863 23.7901 281.215C8.51229 230.604 0 179.274 0 128.055C0 100.871 4.08393 72.7938 28.6859 48.5984C63.9898 13.874 136.049 -7.44434 208.674 -20.9621C344.157 -46.1869 500.946 -50.6266 641.571 -33.7109C718.747 -24.4345 803.92 -3.61226 837.698 34.8822C869.877 71.5289 876.397 111.921 856.125 150.812Z" stroke="#FAEFE6" stroke-miterlimit="10"/>
<path d="M781.284 46.9372C793.019 59.6736 801.285 73.0301 805.738 86.6719C812.553 107.482 810.732 128.85 800.227 149.734C777.446 195.024 708.954 234.35 622.355 249.963C595.194 254.887 566.631 257.603 540.16 263.369C496.811 272.795 460.597 291.248 440.694 313.373C422.833 333.29 427.581 356.17 408.957 375.79C391.76 394.008 356.432 404.661 316.405 402.986C276.623 401.349 241.418 390.114 206.335 381.271C173.836 373.099 139.738 364.864 116.858 349.808C81.4063 326.506 76.0184 296.048 68.5394 268.194C56.5829 223.635 51.8839 178.704 53.4092 133.847C54.2211 110.198 58.1574 85.7418 79.7333 64.6095C110.707 34.2628 173.049 15.3628 235.71 3.12248C282.946 -6.10429 333.134 -12.4291 384.109 -15.8395C459.293 -20.7629 536.568 -19.5104 609.316 -11.4618C648.015 -7.23283 689.1 0.394134 722.903 12.5353C747.628 21.4644 768.245 32.8242 781.284 46.9372Z" stroke="#FAEFE6" stroke-miterlimit="10"/>
<path d="M724.853 59.0168C735.579 69.9425 743.378 81.538 747.659 93.4559C754.252 111.674 753.096 130.375 744.313 148.693C725.271 188.402 666.324 223.176 592.272 237.971C568.999 242.672 544.618 245.561 521.935 250.857C485.204 259.439 453.689 275.734 435.558 295.13C419.493 312.468 422.002 332.236 405.174 349.152C389.65 364.74 359.144 373.942 324.726 372.652C290.307 371.4 259.801 361.838 229.467 353.939C201.814 346.733 172.759 339.379 153.2 326.122C122.891 305.585 118.684 279.256 113.296 255.172C104.661 216.69 103.75 178.134 106.85 139.652C108.449 119.524 112.263 98.7018 130.813 80.6327C157.481 54.6638 210.056 38.1945 262.802 27.2191C302.559 18.9597 344.653 13.0317 387.436 9.6585C450.393 4.68547 515.391 4.8839 577.118 10.8118C609.961 13.9618 645.093 19.9394 674.197 30.0839C695.429 37.4628 713.117 47.0616 724.853 59.0168Z" stroke="#FAEFE6" stroke-miterlimit="10"/>
<path d="M668.431 71.0814C678.173 80.2089 685.505 90.0434 689.589 100.213C695.961 115.839 695.469 131.874 688.432 147.611C673.13 181.728 623.68 211.864 562.224 225.952C542.838 230.392 522.64 233.48 503.77 238.329C473.657 246.055 446.742 260.181 430.48 276.885C416.113 291.631 416.531 308.323 401.45 322.511C387.648 335.483 361.939 343.197 333.081 342.316C304.026 341.423 278.219 333.573 252.657 326.591C229.802 320.353 205.815 313.879 189.553 302.42C164.385 284.649 161.359 262.438 158.063 242.149C152.773 209.731 155.627 177.586 160.277 145.454C162.663 128.86 166.353 111.672 181.877 96.6534C204.216 75.0623 247.048 61.0113 289.88 51.3257C322.158 44.0335 356.182 38.5396 390.748 35.154C441.502 30.1934 494.249 29.226 544.88 33.0705C571.917 35.1292 600.997 39.507 625.451 47.6052C643.165 53.4835 658 61.3089 668.431 71.0814Z" stroke="#FAEFE6" stroke-miterlimit="10"/>
<path d="M606.38 85.4968C615.163 92.8261 621.978 100.887 625.89 109.333C632.04 122.354 632.212 135.736 626.898 148.894C615.36 177.43 575.406 202.989 526.522 216.284C511.023 220.5 495.032 223.737 479.926 228.14C456.431 234.985 434.216 246.99 419.725 260.979C407.129 273.145 405.407 286.737 392.048 298.196C379.993 308.551 359.056 314.802 335.783 314.306C312.091 313.797 290.983 307.634 270.169 301.582C252.087 296.324 233.193 290.73 220.252 281.045C200.226 266.051 198.381 247.945 197.175 231.451C195.207 205.098 201.825 179.377 208.049 153.581C211.198 140.535 214.79 126.955 227.313 115.013C245.346 97.7991 278.436 86.1789 311.304 77.7582C336.078 71.4334 362.033 66.3736 388.407 62.9879C426.933 58.0273 467.453 55.8942 507.013 57.6801C528.244 58.635 551.296 61.4129 571.076 67.4773C585.321 71.8427 597.302 77.907 606.38 85.4968Z" stroke="#FAEFE6" stroke-miterlimit="10"/>
<path d="M555.559 95.2163C563.407 100.747 569.656 107.047 573.42 113.744C579.324 124.174 580.21 134.889 576.593 145.48C568.794 168.435 538.386 189.431 502.074 201.932C490.462 205.925 478.653 209.298 467.336 213.267C450.434 219.207 432.918 229.116 420.198 240.389C409.398 249.963 405.511 260.467 393.874 269.21C383.566 276.949 367.378 281.736 349.689 281.624C331.361 281.513 314.951 277.036 298.911 271.889C285.625 267.623 271.775 262.886 262.155 254.998C247.246 242.77 246.607 228.794 247.492 216.082C248.845 195.805 259.129 176.509 267.026 157.038C270.889 147.539 274.432 137.58 283.928 128.688C297.631 115.853 320.979 106.651 343.932 99.5197C361.227 94.1622 379.088 89.5488 397.269 86.1384C423.569 81.2026 451.91 77.8789 480.35 77.5937C495.8 77.4449 512.751 78.623 527.931 82.6659C538.682 85.5183 547.883 89.7968 555.559 95.2163Z" stroke="#FAEFE6" stroke-miterlimit="10"/>
<path d="M499.144 107.281C506.155 110.989 511.764 115.553 515.356 120.514C521.039 128.352 522.589 136.4 520.719 144.412C516.66 161.786 495.822 178.256 472.032 189.925C464.307 193.708 456.631 197.168 449.152 200.752C438.795 205.713 426.1 213.6 415.103 222.157C406.123 229.164 400.096 236.568 390.132 242.57C381.62 247.704 370.155 251.016 358.026 251.276C345.037 251.549 333.301 248.808 322.083 244.542C313.546 241.293 304.812 237.386 298.514 231.297C288.747 221.835 289.288 211.975 292.265 203.059C296.964 188.847 310.643 175.998 320.484 162.853C324.937 156.912 328.553 150.55 335.024 144.722C344.422 136.264 358.026 129.48 371.041 123.627C380.833 119.237 390.599 115.107 400.612 111.647C414.636 106.798 430.873 102.16 448.168 99.8653C457.837 98.5879 468.686 98.2158 479.24 100.2C486.4 101.539 492.944 104.007 499.144 107.281Z" stroke="#FAEFE6" stroke-miterlimit="10"/>
<path d="M430.509 117.724C414.616 118.133 407.26 129.717 403.914 137.133C398.625 148.951 390.678 159.778 373.9 168.645C353.529 179.422 322.875 190.261 334.856 207.598C346.715 224.737 367.134 223.336 386.373 215.932C405.636 208.516 423.743 195.11 430.952 188.227C449.502 170.542 478.704 147.624 457.276 127.298C453.881 124.074 449.084 121.11 442.687 119.361C438.16 118.109 434.101 117.625 430.509 117.724Z" stroke="#FAEFE6" stroke-miterlimit="10"/>
<path d="M1416.33 692.6C1391.26 683.708 1361.91 679.516 1328.62 684.08C1276.22 691.26 1240.25 714.464 1214.27 737.096C1174.1 772.106 1156.95 815.772 1060.34 817.682C1011.63 818.649 967.886 805.367 920.798 801.56C875.136 797.864 832.968 807.116 803.717 825.135C727.918 871.827 704.398 948.655 816.83 985.698C879.146 1006.24 954.625 1011.23 1025.26 1020.46C1103.49 1030.68 1183.69 1038.4 1264.81 1038.86C1349 1039.34 1433.26 1027.47 1485.14 991.874C1530.34 960.87 1538.92 919.561 1540.74 882.294C1542.71 841.406 1533.41 799.514 1506.52 760.709C1490.78 737.989 1460.07 708.114 1416.33 692.6Z" stroke="#FAEFE6" stroke-miterlimit="10"/>
<path d="M1392.12 722.377C1369.73 714.65 1343.75 711.079 1314.5 715.072C1268.2 721.397 1236.24 741.711 1212.85 761.578C1182.19 787.671 1165.86 819.196 1109.32 829.129C1099.38 830.878 1088.24 831.957 1075.57 832.217C1040.07 832.986 1007.42 825.322 973.69 820.82C966.58 819.865 959.397 819.059 952.139 818.501C911.816 815.388 874.471 823.449 848.491 839.274C782.459 879.753 761.966 946.374 859.119 978.779C875.725 984.323 893.488 988.576 911.89 992.049C954.009 999.998 999.523 1003.92 1043.12 1009.52C1112.18 1018.43 1183.08 1025.07 1254.74 1025.33C1329.09 1025.61 1403.49 1015.14 1449.81 984.161C1490.38 957.114 1499.26 921.05 1501.77 888.248C1504.4 852.358 1496.26 815.562 1472.25 781.644C1458.1 761.752 1430.82 735.82 1392.12 722.377Z" stroke="#FAEFE6" stroke-miterlimit="10"/>
<path d="M1367.91 752.164C1348.23 745.579 1325.6 742.64 1300.36 746.075C1260.16 751.532 1232.18 768.968 1211.39 786.07C1184.28 808.467 1169.13 835.466 1120.05 844.072C1111.39 845.585 1101.69 846.528 1090.75 846.788C1059.94 847.532 1031.5 841.121 1002.15 837.4C995.955 836.606 989.73 835.949 983.408 835.49C948.399 832.948 915.826 839.794 893.192 853.46C836.681 887.614 819.484 944.165 901.36 971.895C915.678 976.744 931.104 980.465 947.046 983.478C983.457 990.361 1022.92 993.821 1060.9 998.621C1120.76 1006.21 1182.39 1011.78 1244.63 1011.85C1309.16 1011.93 1373.67 1002.86 1414.43 976.484C1450.35 953.392 1459.55 922.574 1462.78 894.224C1466.07 863.344 1459.06 831.621 1437.95 802.589C1425.43 785.512 1401.64 763.462 1367.91 752.164Z" stroke="#FAEFE6" stroke-miterlimit="10"/>
<path d="M1343.67 781.953C1326.67 776.521 1307.43 774.215 1286.18 777.079C1252.08 781.68 1228.12 796.227 1209.89 810.564C1186.32 829.265 1172.32 851.725 1130.72 859.004C1123.34 860.294 1115.1 861.1 1105.87 861.348C1079.79 862.055 1055.51 856.908 1030.56 853.957C1025.3 853.337 1019.98 852.803 1014.62 852.456C984.951 850.497 957.15 856.14 937.862 867.636C890.996 895.539 876.948 941.946 943.546 965.013C955.576 969.18 968.64 972.355 982.171 974.909C1012.87 980.726 1046.31 983.739 1078.68 987.72C1129.34 994.008 1181.72 998.485 1234.49 998.361C1289.2 998.237 1343.7 990.523 1379.03 968.808C1410.22 949.622 1419.94 924.112 1423.73 900.215C1427.84 874.345 1421.83 847.706 1403.6 823.548C1392.75 809.274 1372.41 791.143 1343.67 781.953Z" stroke="#FAEFE6" stroke-miterlimit="10"/>
<path d="M1319.47 811.742C1305.15 807.463 1289.28 805.777 1272.06 808.083C1244.09 811.816 1224.04 823.461 1208.46 835.057C1188.34 850.038 1175.62 867.995 1141.5 873.936C1135.37 875.002 1128.63 875.672 1121.1 875.908C1099.72 876.59 1079.65 872.695 1059.1 870.513C1054.77 870.054 1050.39 869.669 1045.97 869.421C1021.63 868.032 998.632 872.472 982.641 881.798C945.467 903.451 934.495 939.738 985.864 958.105C995.606 961.59 1006.31 964.219 1017.4 966.327C1042.42 971.077 1069.78 973.632 1096.55 976.807C1138.03 981.78 1181.11 985.178 1224.43 984.855C1269.33 984.533 1313.91 978.208 1343.7 961.106C1370.22 945.865 1380.31 925.625 1384.76 906.18C1389.56 885.32 1384.76 863.729 1369.33 844.494C1360.13 833.035 1343.18 818.823 1319.47 811.742Z" stroke="#FAEFE6" stroke-miterlimit="10"/>
<path d="M1295.26 841.531C1283.63 838.418 1271.13 837.352 1257.92 839.088C1236.05 841.965 1220.01 850.721 1207.02 859.55C1190.44 870.836 1178.9 884.254 1152.23 888.868C1147.38 889.711 1142.09 890.244 1136.29 890.468C1119.63 891.125 1103.74 888.483 1087.57 887.082C1084.16 886.784 1080.74 886.549 1077.27 886.4C1058.27 885.594 1040.09 888.831 1027.37 895.974C999.918 911.389 991.922 937.594 1028.11 951.223C1035.54 954.026 1043.93 956.109 1052.59 957.759C1071.9 961.454 1093.21 963.55 1114.37 965.906C1146.64 969.565 1180.47 971.884 1214.35 971.375C1249.41 970.855 1284.12 965.931 1308.33 953.443C1330.22 942.157 1340.61 927.164 1345.77 912.183C1351.23 896.334 1347.59 879.827 1335.05 865.466C1327.47 856.797 1313.91 846.529 1295.26 841.531Z" stroke="#FAEFE6" stroke-miterlimit="10"/>
<path d="M1271.06 871.319C1262.08 869.384 1252.98 868.913 1243.8 870.104C1228.03 872.113 1216 877.991 1205.59 884.056C1192.55 891.658 1182.17 900.525 1162.98 903.824C1159.41 904.431 1155.6 904.841 1151.49 905.051C1139.54 905.671 1127.85 904.307 1116.09 903.662C1113.61 903.526 1111.1 903.427 1108.59 903.39C1094.93 903.154 1081.6 905.213 1072.15 910.161C1054.54 919.375 1049.32 935.559 1070.43 944.34C1075.57 946.473 1081.6 947.986 1087.82 949.189C1101.43 951.818 1116.71 953.455 1132.23 955.005C1155.31 957.349 1179.86 958.589 1204.29 957.882C1229.53 957.163 1254.4 953.653 1273 945.753C1290.27 938.424 1300.9 928.689 1306.81 918.16C1312.88 907.321 1310.42 895.887 1300.78 886.424C1294.77 880.558 1284.61 874.246 1271.06 871.319Z" stroke="#FAEFE6" stroke-miterlimit="10"/>
<path d="M1173.68 918.755C1164.38 920.305 1154.32 920.045 1144.53 920.218C1134.74 920.392 1124.38 921.161 1116.83 924.323C1109.3 927.486 1106.15 933.736 1112.62 937.444C1115.3 938.982 1119.17 939.863 1122.93 940.619C1164.48 948.841 1242.64 946.547 1267.76 924.15C1278.66 914.427 1268.06 903.464 1246.8 901.12C1214.37 897.536 1200.45 914.278 1173.68 918.755Z" stroke="#FAEFE6" stroke-miterlimit="10"/>
<path d="M801.292 285.641C798.66 280.073 794.478 274.654 789.705 269.743C784.588 264.484 776.666 259.61 765.792 257.577C743.478 253.41 719.983 262.463 703.499 268.986C700.154 270.301 696.808 271.702 694.643 273.537C688.049 279.106 698.259 284.451 706.501 287.663C725.125 294.918 745.224 300.92 763.75 308.212C803.728 323.975 808.402 300.746 801.292 285.641Z" stroke="#FAEFE6" stroke-miterlimit="10"/>
<path d="M757.712 277.692C753.505 276.601 748.019 276.601 744.255 278.052C742.114 278.87 740.589 280.247 741.253 281.549C742.016 283.062 745.19 283.843 747.748 284.711C752.718 286.386 762.141 293.74 767.381 288.717C771.194 285.034 764.232 279.391 757.712 277.692Z" stroke="#FAEFE6" stroke-miterlimit="10"/>
<path d="M1447.7 366.81C1412.05 390.559 1386.39 419.492 1337.53 437.462C1313.89 446.155 1288.7 448.536 1261.93 453.41C1238.36 457.701 1218.51 465.005 1223.33 479.044C1230.44 499.73 1258.39 516.844 1269.58 536.959C1280.55 556.69 1281.63 577.661 1272.73 597.64C1266.09 612.51 1250.29 633.27 1273.86 646.44C1284.96 652.641 1302.87 654.328 1319.42 654.625C1377.14 655.667 1415.3 667.002 1463.17 682.442C1476.51 686.746 1492.13 690.838 1507.51 688.903" stroke="#FAEFE6" stroke-miterlimit="10"/>
<path d="M1450.31 402.34C1420.62 422.058 1397.42 445.175 1355.72 458.866C1333.23 466.258 1307.62 468.254 1284.13 473.971C1266.19 478.337 1250.52 484.054 1254.06 495.339C1259.25 512.094 1280.81 526.244 1290.15 542.639C1299.28 558.649 1301.13 575.54 1295.94 591.625C1292.02 603.779 1281.67 620.236 1300.39 630.864C1309.93 636.283 1324.52 638.218 1338.2 639.012C1385.93 641.802 1419.46 651.066 1461.46 662.736C1473.09 665.985 1486.53 669.023 1499.86 667.523" stroke="#FAEFE6" stroke-miterlimit="10"/>
<path d="M1452.9 437.87C1429.15 453.558 1408.07 470.684 1373.9 480.271C1352.4 486.298 1326.74 487.737 1306.32 494.533C1293.92 498.662 1282.53 503.102 1284.79 511.634C1288.09 524.445 1303.22 535.656 1310.75 548.306C1318.03 560.583 1320.68 573.431 1319.18 585.585C1318.03 595.023 1313.06 607.189 1326.96 615.262C1334.93 619.9 1346.25 622.095 1357.02 623.373C1394.76 627.924 1423.69 635.055 1459.81 642.992C1469.75 645.175 1480.97 647.184 1492.28 646.105" stroke="#FAEFE6" stroke-miterlimit="10"/>
<path d="M1455.49 473.39C1437.73 485.035 1418.37 495.886 1392.07 501.653C1371.38 506.192 1345.57 506.75 1328.47 515.071C1321.26 518.581 1314.52 522.128 1315.46 527.907C1316.88 536.786 1325.57 545.033 1331.27 553.963C1336.71 562.52 1340.3 571.35 1342.34 579.535C1344.02 586.293 1344.31 594.144 1353.44 599.662C1359.84 603.519 1367.88 605.962 1375.75 607.736C1403.51 614.036 1427.81 619.096 1458.05 623.25C1466.27 624.379 1475.32 625.346 1484.59 624.676" stroke="#FAEFE6" stroke-miterlimit="10"/>
<path d="M1458.1 508.92C1446.29 516.534 1428.43 520.701 1410.25 523.057C1390.1 525.674 1361.83 524.918 1350.67 535.633C1335.24 550.453 1362.6 572.701 1379.99 584.086C1406.17 601.225 1435 604.697 1477 603.283" stroke="#FAEFE6" stroke-miterlimit="10"/>
<path d="M708.335 981.854C694.041 970.457 684.274 957.609 679.797 944.314C675.983 932.992 675.344 920.59 661.05 911.636C646.756 902.682 621.883 899.619 599.151 900.524C576.419 901.43 554.843 905.671 532.947 908.908C490.632 915.171 446.176 917.725 402.163 916.448C374.535 915.642 347.054 913.335 319.377 913.497C267.885 913.782 216.738 922.872 176.267 938.932C163.327 944.066 150.927 950.342 146.893 958.39C142.858 966.439 150.435 976.435 166.328 978.617" stroke="#FAEFE6" stroke-miterlimit="10"/>
<path d="M621.37 967.083C625.11 957.125 628.013 945.542 614.531 938.027C597.974 928.8 568.599 931.689 544.612 934.591C496.811 940.37 447.582 943.186 398.427 942.95C347.501 942.702 290.523 940.147 251.922 956.877C233.077 965.037 222.055 980.403 238.071 989.964" stroke="#FAEFE6" stroke-miterlimit="10"/>
<path d="M1456.56 323.206C1439.73 335.136 1401.75 334.516 1378.67 325.612C1355.59 316.708 1344.11 302.297 1334.86 288.42C1314.61 258.085 1299.9 226.585 1270.87 198.111C1241.84 169.65 1195.34 143.755 1134.13 135.297C1097.77 130.275 1058.53 131.664 1022.88 125.488C986.368 119.163 956.255 105.149 936.426 88.4566C916.597 71.7641 906.411 52.5169 901.885 33.1952C898.44 18.487 898.219 3.34465 906.362 -10.8924C914.506 -25.1294 931.776 -38.4362 957.215 -45.8772" stroke="#FAEFE6" stroke-miterlimit="10"/>
<path d="M1016.63 -39.1564C994.198 -32.5463 978.895 -20.8144 971.564 -8.23923C964.257 4.32356 964.282 17.7173 967.258 30.7265C971.17 47.8159 980.248 64.8308 997.937 79.5515C1015.72 94.3342 1042.61 106.637 1075.02 112.329C1094.72 115.789 1115.61 116.731 1136.32 118.083C1148.87 118.902 1161.34 119.869 1173.47 121.642C1227.52 129.517 1268.58 152.56 1294.15 177.908C1295.87 179.62 1297.54 181.356 1299.16 183.092C1319.78 205.266 1331.96 229.412 1348.05 252.243C1349.35 254.091 1350.66 255.914 1352.01 257.737C1360.13 268.75 1369.92 279.924 1387.36 287.352C1388.89 287.997 1390.46 288.63 1392.11 289.213C1412.58 296.554 1445.67 296.703 1460.6 286.1" stroke="#FAEFE6" stroke-miterlimit="10"/>
<path d="M1076.04 -32.4459C1056.58 -26.6667 1043.25 -16.4975 1036.78 -5.60888C1030.31 5.29211 1030.14 16.9248 1032.65 28.235C1035.94 43.0921 1043.91 57.8872 1059.44 70.6236C1075.18 83.484 1098.85 94.075 1127.14 99.1472C1144.34 102.223 1162.55 103.19 1180.53 104.542C1191.43 105.36 1202.28 106.315 1212.78 107.952C1259.65 115.244 1295.3 135.447 1317.37 157.67C1318.87 159.171 1320.29 160.684 1321.7 162.209C1339.46 181.655 1350.01 202.998 1365.32 222.382C1366.55 223.944 1367.8 225.494 1369.08 227.02C1376.8 236.271 1385.98 245.411 1401.31 251.314C1402.64 251.835 1404.04 252.319 1405.47 252.79C1423.35 258.569 1451.52 258.247 1464.58 248.971" stroke="#FAEFE6" stroke-miterlimit="10"/>
<path d="M1135.45 -25.7499C1118.97 -20.7893 1107.61 -12.2074 1101.97 -2.98063C1096.34 6.25854 1095.99 16.1302 1098.03 25.7538C1100.72 38.391 1107.58 50.9414 1120.96 61.706C1134.67 72.6566 1155.11 81.5361 1179.32 85.9758C1194.01 88.667 1209.51 89.6715 1224.78 91.0109C1234.06 91.8294 1243.24 92.7719 1252.12 94.2849C1291.8 100.994 1322.04 118.344 1340.61 137.467C1341.87 138.757 1343.07 140.059 1344.25 141.374C1359.19 158.103 1368.09 176.631 1382.61 192.567C1383.79 193.857 1384.97 195.11 1386.17 196.362C1393.48 203.865 1402.07 210.959 1415.28 215.324C1416.43 215.709 1417.61 216.068 1418.84 216.403C1434.12 220.62 1457.42 219.826 1468.59 211.889" stroke="#FAEFE6" stroke-miterlimit="10"/>
<path d="M1194.86 -19.0394C1181.36 -14.9097 1171.96 -7.90283 1167.16 -0.337869C1162.36 7.22709 1161.82 15.3501 1163.4 23.2747C1165.46 33.6796 1171.17 44.0226 1182.46 52.7905C1194.1 61.8312 1211.35 68.9993 1231.45 72.8066C1243.62 75.1133 1256.44 76.1426 1268.99 77.482C1276.62 78.3005 1284.14 79.2306 1291.43 80.6072C1323.95 86.7336 1348.72 101.231 1363.83 117.241C1364.86 118.32 1365.82 119.412 1366.78 120.515C1378.86 134.517 1386.17 150.242 1399.9 162.718C1401 163.723 1402.13 164.702 1403.27 165.657C1410.18 171.412 1418.15 176.471 1429.25 179.299C1430.21 179.547 1431.21 179.783 1432.22 179.993C1444.92 182.66 1463.32 181.395 1472.59 174.772" stroke="#FAEFE6" stroke-miterlimit="10"/>
<path d="M1254.3 -12.3311C1243.77 -9.01987 1236.34 -3.60038 1232.41 2.30277C1228.45 8.20592 1227.73 14.5679 1228.84 20.7935C1230.29 28.9662 1234.89 37.0768 1244.02 43.8728C1253.61 51.0037 1267.66 56.448 1283.63 59.6352C1293.3 61.5575 1303.43 62.624 1313.27 63.951C1319.25 64.7695 1325.13 65.6872 1330.81 66.9398C1356.15 72.4833 1375.52 84.1408 1387.13 97.026C1387.92 97.8941 1388.68 98.7746 1389.39 99.6551C1398.64 110.928 1404.3 123.851 1417.24 132.879C1418.27 133.611 1419.36 134.305 1420.44 134.962C1426.96 138.956 1434.32 141.982 1443.3 143.284C1444.08 143.395 1444.87 143.495 1445.68 143.594C1455.79 144.698 1469.27 142.961 1476.68 137.666" stroke="#FAEFE6" stroke-miterlimit="10"/>
<path d="M1313.72 -5.633C1306.16 -3.15268 1300.73 0.704205 1297.6 4.93314C1294.48 9.16208 1293.57 13.7755 1294.21 18.302C1295.04 24.2424 1298.56 30.1331 1305.52 34.9449C1313.08 40.166 1323.9 43.8989 1335.76 46.4536C1342.92 47.9914 1350.35 49.0827 1357.48 50.4097C1361.81 51.2282 1366.07 52.1335 1370.13 53.2497C1388.29 58.2103 1402.21 67.0154 1410.35 76.7879C1410.9 77.4451 1411.44 78.1148 1411.93 78.7845C1418.35 87.3416 1422.38 97.4489 1434.51 103.03C1435.5 103.476 1436.48 103.885 1437.51 104.257C1443.64 106.502 1450.38 107.482 1457.25 107.259C1457.84 107.234 1458.45 107.209 1459.04 107.172C1466.54 106.713 1475.16 104.505 1480.67 100.537" stroke="#FAEFE6" stroke-miterlimit="10"/>
<path d="M1373.13 1.07516C1357.95 6.56905 1354.95 18.8466 1367.03 26.0271C1375.89 31.2978 1389.96 33.344 1401.72 36.8785C1417.25 41.5663 1429.18 49.2057 1434.52 57.924C1438.08 63.7527 1440.49 71.0696 1451.86 73.1779C1458.31 74.3808 1465.74 73.2895 1471.27 71.2308C1476.81 69.1722 1480.82 66.2702 1484.73 63.4179" stroke="#FAEFE6" stroke-miterlimit="10"/>
<path d="M912.444 107.295C910.845 106.96 909.27 106.873 907.77 107.134C906.736 107.32 906.023 107.766 905.383 108.213C898.593 113.111 899.159 119.746 897.191 125.401C895.124 131.292 893.5 137.232 891.778 143.148C890.77 146.67 886.39 153.64 893.279 156.281C896.772 157.62 901.668 157.199 905.949 156.703C921.768 154.867 941.425 151.978 945.337 142.813C948.56 135.273 939.727 128.043 933.7 121.458C929.149 116.472 923.195 109.589 912.444 107.295Z" stroke="#FAEFE6" stroke-miterlimit="10"/>
<path d="M1171.25 466.842C1156.91 467.871 1147.22 459.773 1137.67 455.767C1124.58 450.286 1109.62 445.995 1094.1 442.547C1075.97 438.529 1056.95 435.64 1037.91 432.936C1025.09 431.125 1006.86 427.529 1007.9 419.208C1008.54 414.111 1030.38 418.141 1036.75 419.443C1082.14 428.72 1125.62 440.439 1174.89 444.829C1198.17 446.9 1192.88 465.131 1171.52 466.83C1171.43 466.83 1171.33 466.842 1171.25 466.842Z" stroke="#FAEFE6" stroke-miterlimit="10"/>
<path d="M500.4 504.691C498.654 503.823 496.981 502.955 495.455 502.111C470.632 488.42 454.788 472.868 438.945 456.325C436.854 454.13 434.615 451.91 431.22 450.174C425.266 447.135 416.532 447.073 408.61 447.408C401.033 447.73 393.505 448.301 386.075 449.132C375.619 450.298 364.007 452.629 360.686 457.751C356.799 463.778 366.492 469.632 374.684 474.419C415.351 498.18 459.02 519.895 516.564 533.45C520.845 534.455 525.322 535.372 530.046 535.521C532.432 535.596 535.04 535.434 536.787 534.603C538.804 533.636 539.075 532.049 538.706 530.647C536.024 520.317 515.211 512.07 500.4 504.691Z" stroke="#FAEFE6" stroke-miterlimit="10"/>
<path d="M861.394 766.773C848.823 758.947 837.899 750.576 825.82 742.49C820.604 738.993 810.788 737.517 804.367 741.201C800.48 743.433 799.447 746.583 799.545 749.559C799.988 762.717 801.021 774.139 792.361 786.9C781.216 803.345 765.742 819.12 745.519 833.22C735.432 840.252 724.14 846.862 711.691 852.852C691.985 862.327 644.897 875.026 678.085 891.21C682.685 893.455 688.762 895.055 695.159 895.104C715.849 895.265 723.131 878.784 730.61 871.541C741.706 860.764 752.309 849.851 762.691 838.9C777.551 823.225 790.122 805.379 818.021 794.217C825.918 791.055 834.996 788.562 844.69 787.111C854.284 785.685 867.791 787.273 876.303 784.891C886.415 782.051 878.05 776.272 872.982 773.519C868.923 771.337 865.085 769.079 861.394 766.773Z" stroke="#FAEFE6" stroke-miterlimit="10"/>
</g>
<defs>
<clipPath id="clip0_1_2">
<rect width="1440" height="1024" fill="white"/>
</clipPath>
</defs>
</svg>
